<svg xmlns="http://www.w3.org/2000/svg" xmlns:xlink="http://www.w3.org/1999/xlink" id="a" width="105.26mm" height="28.64mm" viewBox="0 0 298.38 81.19"><defs><style>.r{clip-path:url(#l);}.s{clip-path:url(#h);}.t{fill:url(#c);}.u{fill:url(#m);}.v{clip-path:url(#n);}.w{stroke:#2e2d2c;stroke-miterlimit:10;stroke-width:1.35px;}.w,.x{fill:none;}.y{fill:url(#g);}.a`{fill:#2e2d2c;}.aa{clip-path:url(#b);}.ab{fill:url(#i);}.ac{clip-path:url(#d);}.ad{fill:url(#e);}.ae{clip-path:url(#p);}.af{clip-path:url(#f);}.ag{clip-path:url(#j);}.ah{fill:url(#o);}.ai{fill:url(#q);}.aj{fill:url(#k);}</style><clipPath id="b"><path d="M21.94,9.79s7.67-.47,13.91,2.48c5.19,2.45,8.9,6.42,11.87,10.46,2.97,4.04,4.89,10.51,4.89,10.51h-18.03s-.55,0-1.02,.29c-.38,.24-.62,.48-.83,.87-.14,.25-.24,.65-.24,.91,0,.23,0,.38,.09,.68,.12,.41,.35,.75,.61,.98,.23,.2,.43,.33,.72,.44,.43,.15,.73,.13,.73,.13h19.19s.51,2.36,1.06,8.85c.44,5.2,.39,10.2,.39,10.2,0,0-11.67,.05-13.73,0-.65-.01-1.18,.24-1.58,.64-.25,.25-.43,.57-.53,.89-.07,.24-.11,.5-.07,.8,.01,.41,.25,.92,.5,1.2,.2,.22,.39,.37,.61,.49,.36,.19,.73,.25,1.01,.25,.63,0,14.19,0,14.19,0,0,0,.49,3.93,2.81,6.09,2.32,2.16,6.31,4.01,11.19,1.61,1.26-.62,3.24-1.97,4.42-3.48,5.61-7.22,6.49-14.19,6.49-14.19l-6.76,6.07-5.76-1.12-2.65-3.36s-.25-3.25-1.1-8.93c-.85-5.68-1.67-10.53-2.33-13.43-.66-2.89-4.07-9.78-7.05-13.17-2.98-3.38-7.66-8.36-15.89-9.98-1.75-.34-3.41-.49-4.95-.49-7.41,0-12.16,3.29-12.16,3.29" style="fill:none;"></path></clipPath><linearGradient id="c" x1="-64.65" y1="755.99" x2="-63.46" y2="755.99" gradientTransform="translate(30251.99 -2516.48) rotate(-90) scale(39.95 -39.95)" gradientUnits="userSpaceOnUse"><stop offset="0" stop-color="#39b28f"></stop><stop offset="1" stop-color="#145a78"></stop></linearGradient><clipPath id="d"><path d="M25.38,8.09c-2.15,.83-3.44,1.7-3.44,1.7,0,0,25.9-9.96,35.36,20,3.41,13.52,2.9,20.28,4.52,28.1,1.62,7.82,10.8,8.84,14.34,3.9,3.3-4.61,4.78-11.1,4.78-11.1-.59,2.31-3.17,4.34-3.17,4.34,0,0-2.49,2.24-6.57,1.92-4.08-.31-5.4-4.96-5.4-4.96,0,0,.07-8.78-2.96-20.06-2.16-8.05-7.87-17.1-15.73-21.87-1.81-1.1-3.79-1.96-5.8-2.54-2.56-.74-4.97-1.03-7.18-1.03-3.53,0-6.54,.75-8.74,1.6" style="fill:none;"></path></clipPath><linearGradient id="e" x1="-64.65" y1="756.75" x2="-63.47" y2="756.75" gradientTransform="translate(30579.82 -2530.13) rotate(-90) scale(40.34 -40.34)" gradientUnits="userSpaceOnUse"><stop offset="0" stop-color="#39b28f"></stop><stop offset="0" stop-color="#39b28f"></stop><stop offset=".19" stop-color="#309c89"></stop><stop offset=".54" stop-color="#20787f"></stop><stop offset=".82" stop-color="#17627a"></stop><stop offset="1" stop-color="#145a78"></stop></linearGradient><clipPath id="f"><path d="M59.61,9.03c1.78,1.92,8,9.79,9.94,22.33,1.1,10.8-3.77,20.38-3.77,20.38,0,0,.41,4.85,5.57,5.42,7.5,.46,9.42-5.66,9.42-5.66,4.06-15.84-1.17-28.57-8.11-36.99C61.4,.84,47.11,0,47.11,0c0,0,5.19,.92,12.5,9.03" style="fill:none;"></path></clipPath><linearGradient id="g" x1="-63.89" y1="752.74" x2="-62.71" y2="752.74" gradientTransform="translate(29547.15 -2436.92) rotate(-90) scale(39.17 -39.17)" gradientUnits="userSpaceOnUse"><stop offset="0" stop-color="#39b28f"></stop><stop offset=".16" stop-color="#2d9788"></stop><stop offset=".36" stop-color="#227c81"></stop><stop offset=".57" stop-color="#1a697c"></stop><stop offset=".78" stop-color="#155d79"></stop><stop offset="1" stop-color="#145a78"></stop></linearGradient><clipPath id="h"><path d="M66.88,49.08c-.34,.9-1.1,2.66-1.1,2.66,0,0,.49,5.57,6.69,5.69,3.61,.07,5.96-2.15,7.2-3.89,.77-1.08,1.08-2.01,1.08-2.01,0,0-1.95,1.9-4.43,2.89-1.98,.79-4.14,.12-5.73-.76-3.58-1.97-2.61-7.78-2.61-7.78,0,0-.77,2.3-1.11,3.19" style="fill:none;"></path></clipPath><linearGradient id="i" x1="-83.59" y1="814.4" x2="-82.4" y2="814.4" gradientTransform="translate(-1557.05 -15923.45) rotate(-180) scale(19.62 -19.62)" gradientUnits="userSpaceOnUse"><stop offset="0" stop-color="#189468"></stop><stop offset="1" stop-color="#145a78"></stop></linearGradient><clipPath id="j"><path d="M12.52,12.63c-1.26,.62-3.24,1.97-4.42,3.48C2.49,23.34,1.61,30.31,1.61,30.31l6.76-6.07,5.76,1.12,2.65,3.36s.25,3.25,1.1,8.92c.85,5.68,1.67,10.53,2.33,13.43,.65,2.89,4.07,9.78,7.05,13.17,2.97,3.38,7.66,8.36,15.89,9.98,10.18,2,17.12-2.81,17.12-2.81,0,0-7.67,.47-13.91-2.48-5.19-2.45-8.9-6.42-11.87-10.46-2.97-4.04-4.89-10.45-4.89-10.45h17.96s.35,.02,.79-.14c.28-.1,.57-.29,.8-.55,.2-.22,.36-.48,.46-.77,.06-.18,.11-.43,.11-.62,0-.12,0-.21-.02-.34-.02-.17-.07-.34-.13-.49-.16-.41-.43-.72-.72-.94-.22-.16-.43-.26-.63-.32-.36-.11-.65-.1-.65-.1H28.38s-.51-2.42-1.06-8.9c-.44-5.2-.39-10.2-.39-10.2,0,0,11.67-.03,13.73,0,.2,0,.27-.01,.44-.04,.48-.09,.76-.31,1.01-.51,.17-.14,.33-.35,.43-.53,.21-.38,.3-.81,.28-1.15,0-.11-.02-.25-.04-.34-.09-.5-.39-.95-.76-1.24-.45-.37-.99-.48-1.24-.48h-14.25s-.49-3.93-2.81-6.09c-1.55-1.44-3.83-2.74-6.63-2.74-1.4,0-2.93,.33-4.56,1.13" style="fill:none;"></path></clipPath><linearGradient id="k" x1="-3.48" y1="780.99" x2="-2.3" y2="780.99" gradientTransform="translate(-31168.74 154.26) rotate(90) scale(39.95 -39.95)" xlink:href="#c"></linearGradient><clipPath id="l"><path d="M6.03,19.39C2.73,24,1.25,30.49,1.25,30.49c.59-2.31,3.17-4.34,3.17-4.34,0,0,2.5-2.24,6.58-1.92,4.08,.31,5.4,4.96,5.4,4.96,0,0-.07,8.78,2.97,20.06,2.16,8.05,7.87,17.1,15.73,21.87,1.81,1.1,3.79,1.96,5.8,2.55,6.64,1.93,12.34,.82,15.93-.57,2.15-.83,3.44-1.7,3.44-1.7,0,0-25.9,9.96-35.36-20-3.41-13.52-2.9-20.28-4.52-28.1-.97-4.67-4.63-6.92-8.18-6.92-2.4,0-4.74,1.02-6.16,3.01" style="fill:none;"></path></clipPath><linearGradient id="m" x1="-3.57" y1="780.22" x2="-2.39" y2="780.22" gradientTransform="translate(-31444.64 147.23) rotate(90) scale(40.34 -40.34)" xlink:href="#e"></linearGradient><clipPath id="n"><path d="M1.44,29.69c-4.07,15.84,1.08,28.74,8.02,37.16,11.26,13.67,25.64,14.34,25.64,14.34,0,0-5.19-.92-12.5-9.03-1.78-1.92-8-9.79-9.94-22.33-1.1-10.8,3.78-20.38,3.78-20.38,0,0-.41-4.85-5.57-5.42-.27-.02-.54-.02-.8-.02-6.84,0-8.62,5.69-8.62,5.69" style="fill:none;"></path></clipPath><linearGradient id="o" x1="-4.27" y1="784.19" x2="-3.09" y2="784.19" gradientTransform="translate(-30696.75 183.06) rotate(90) scale(39.17 -39.17)" xlink:href="#g"></linearGradient><clipPath id="p"><path d="M2.53,27.65c-.77,1.08-1.08,2.01-1.08,2.01,0,0,1.95-1.9,4.43-2.89,1.98-.79,4.13-.12,5.73,.75,3.58,1.97,2.61,7.78,2.61,7.78,0,0,.77-2.3,1.11-3.19,.34-.9,1.1-2.66,1.1-2.66,0,0-.49-5.57-6.69-5.69-.05,0-.11,0-.16,0-3.52,0-5.82,2.18-7.04,3.89" style="fill:none;"></path></clipPath><linearGradient id="q" x1="19.39" y1="716.08" x2="20.58" y2="716.08" gradientTransform="translate(-337.65 12613.94) scale(17.57 -17.57)" xlink:href="#i"></linearGradient></defs><g style="clip-path:url(#b);"><rect x="11.11" y="-2.84" width="80.32" height="83.15" transform="translate(-11.53 25.15) rotate(-24.87)" style="fill:url(#c);"></rect></g><g style="clip-path:url(#d);"><rect x="10.24" y="-9.73" width="82.41" height="86.03" transform="translate(-9.4 26.01) rotate(-26.09)" style="fill:url(#e);"></rect></g><g style="clip-path:url(#f);"><rect x="38.64" y="-4.61" width="54.65" height="66.86" transform="translate(-5.82 23.43) rotate(-19.3)" style="fill:url(#g);"></rect></g><g style="clip-path:url(#h);"><rect x="65.77" y="45.89" width="14.98" height="11.62" style="fill:url(#i);"></rect></g><g style="clip-path:url(#j);"><rect x="-9.27" y="2.17" width="80.42" height="83.37" transform="translate(-15.58 17.08) rotate(-24.87)" style="fill:url(#k);"></rect></g><g style="clip-path:url(#l);"><rect x="-10.03" y="6.72" width="81.57" height="84.3" transform="translate(-18.35 18.5) rotate(-26.09)" style="fill:url(#m);"></rect></g><g style="clip-path:url(#n);"><rect x="-11.02" y="19.38" width="54.51" height="66.44" transform="translate(-16.47 8.32) rotate(-19.3)" style="fill:url(#o);"></rect></g><g style="clip-path:url(#p);"><rect x="1.3" y="23.56" width="15.28" height="11.94" transform="translate(-.77 .25) rotate(-1.51)" style="fill:url(#q);"></rect></g><g><path d="M126.04,48.2c0-3.83-3.12-6.95-6.95-6.95h-10.64c-4.53,0-8.21-3.68-8.21-8.21s3.68-8.21,8.21-8.21h10.64c4.53,0,8.21,3.68,8.21,8.21,0,.19-.15,.34-.34,.34h-.58c-.19,0-.34-.15-.34-.34,0-3.83-3.12-6.95-6.95-6.95h-10.64c-3.83,0-6.95,3.12-6.95,6.95s3.12,6.95,6.95,6.95h10.64c4.53,0,8.21,3.68,8.21,8.21s-3.68,8.21-8.21,8.21h-10.64c-4.53,0-8.21-3.68-8.21-8.21,0-.19,.15-.34,.34-.34h.58c.19,0,.34,.15,.34,.34,0,3.83,3.12,6.95,6.95,6.95h10.64c3.83,0,6.95-3.12,6.95-6.95" style="fill:#2e2d2c;"></path><path d="M126.04,48.2c0-3.83-3.12-6.95-6.95-6.95h-10.64c-4.53,0-8.21-3.68-8.21-8.21s3.68-8.21,8.21-8.21h10.64c4.53,0,8.21,3.68,8.21,8.21,0,.19-.15,.34-.34,.34h-.58c-.19,0-.34-.15-.34-.34,0-3.83-3.12-6.95-6.95-6.95h-10.64c-3.83,0-6.95,3.12-6.95,6.95s3.12,6.95,6.95,6.95h10.64c4.53,0,8.21,3.68,8.21,8.21s-3.68,8.21-8.21,8.21h-10.64c-4.53,0-8.21-3.68-8.21-8.21,0-.19,.15-.34,.34-.34h.58c.19,0,.34,.15,.34,.34,0,3.83,3.12,6.95,6.95,6.95h10.64c3.83,0,6.95-3.12,6.95-6.95Z" style="fill:none; stroke:#2e2d2c; stroke-miterlimit:10; stroke-width:1.35px;"></path><path d="M157.73,55.94l-12.87-30.9v-.02l-.03-.04v-.02l-.04-.03-.04-.04-.03-.02-.06-.03h-.03l-.09-.02h-.72l-.03,.02-.06,.03-.03,.02-.04,.04-.02,.03v.02l-.03,.04v.02l-12.89,30.9,.03,.32c.06,.09,.17,.15,.28,.15h.63c.14,0,.26-.08,.31-.21l3.57-8.58h8.69v-1.26h-8.16l8.14-19.55,12.24,29.39c.05,.13,.18,.21,.31,.21h.63c.11,0,.22-.06,.28-.15l.03-.32Z" style="fill:#2e2d2c;"></path><path d="M157.73,55.94l-12.87-30.9v-.02l-.03-.04v-.02l-.04-.03-.04-.04-.03-.02-.06-.03h-.03l-.09-.02h-.72l-.03,.02-.06,.03-.03,.02-.04,.04-.02,.03v.02l-.03,.04v.02l-12.89,30.9,.03,.32c.06,.09,.17,.15,.28,.15h.63c.14,0,.26-.08,.31-.21l3.57-8.58h8.69v-1.26h-8.16l8.14-19.55,12.24,29.39c.05,.13,.18,.21,.31,.21h.63c.11,0,.22-.06,.28-.15l.03-.32Z" style="fill:none; stroke:#2e2d2c; stroke-miterlimit:10; stroke-width:1.35px;"></path><path d="M163.31,56.08V25.17c0-.19,.15-.34,.34-.34h15.32c6.29,0,11.4,5.11,11.4,11.4s-5.11,11.4-11.4,11.4h-14.4v8.45c0,.19-.15,.34-.34,.34h-.58c-.19,0-.34-.15-.34-.34m25.8-19.85c0-5.59-4.55-10.14-10.14-10.14h-14.4v20.27h14.4c5.59,0,10.14-4.55,10.14-10.14" style="fill:#2e2d2c;"></path><path d="M163.31,56.08V25.17c0-.19,.15-.34,.34-.34h15.32c6.29,0,11.4,5.11,11.4,11.4s-5.11,11.4-11.4,11.4h-14.4v8.45c0,.19-.15,.34-.34,.34h-.58c-.19,0-.34-.15-.34-.34Zm25.8-19.85c0-5.59-4.55-10.14-10.14-10.14h-14.4v20.27h14.4c5.59,0,10.14-4.55,10.14-10.14Z" style="fill:none; stroke:#2e2d2c; stroke-miterlimit:10; stroke-width:1.35px;"></path><path d="M207.2,26.09v13.9h16.46c.19,0,.34,.15,.34,.34v.58c0,.19-.15,.34-.34,.34h-16.46v13.9h25.46c.19,0,.34,.15,.34,.34v.58c0,.19-.15,.34-.34,.34h-26.38c-.19,0-.34-.15-.34-.34V25.17c0-.19,.15-.34,.34-.34h26.38c.19,0,.34,.15,.34,.34v.58c0,.19-.15,.34-.34,.34h-25.46Z" style="fill:#2e2d2c;"></path><path d="M207.2,26.09v13.9h16.46c.19,0,.34,.15,.34,.34v.58c0,.19-.15,.34-.34,.34h-16.46v13.9h25.46c.19,0,.34,.15,.34,.34v.58c0,.19-.15,.34-.34,.34h-26.38c-.19,0-.34-.15-.34-.34V25.17c0-.19,.15-.34,.34-.34h26.38c.19,0,.34,.15,.34,.34v.58c0,.19-.15,.34-.34,.34h-25.46Z" style="fill:none; stroke:#2e2d2c; stroke-miterlimit:10; stroke-width:1.35px;"></path><path d="M238.37,56.07V25.11l.03-.08h0v-.02l.05-.06v-.02l.08-.05h.01l.07-.04h.02l.09-.02h.76l.26,.12,12.81,15.45,11.39,14.02V25.17c0-.19,.15-.34,.34-.34h.58c.19,0,.34,.15,.34,.34v30.96l-.03,.08h0l-.04,.08h-.01l-.07,.07h0l-.07,.04h-.02l-.09,.02h-.76l-.26-.12-12.2-15-.38-.46-11.63-14.02v29.26c0,.19-.15,.34-.34,.34h-.58c-.19,0-.34-.15-.34-.34" style="fill:#2e2d2c;"></path><path d="M238.37,56.07V25.11l.03-.08h0v-.02l.05-.06v-.02l.08-.05h.01l.07-.04h.02l.09-.02h.76l.26,.12,12.81,15.45,11.39,14.02V25.17c0-.19,.15-.34,.34-.34h.58c.19,0,.34,.15,.34,.34v30.96l-.03,.08h0l-.04,.08h-.01l-.07,.07h0l-.07,.04h-.02l-.09,.02h-.76l-.26-.12-12.2-15-.38-.46-11.63-14.02v29.26c0,.19-.15,.34-.34,.34h-.58c-.19,0-.34-.15-.34-.34Z" style="fill:none; stroke:#2e2d2c; stroke-miterlimit:10; stroke-width:1.35px;"></path><path d="M296.44,48.2c0-3.83-3.12-6.95-6.95-6.95h-10.64c-4.53,0-8.21-3.68-8.21-8.21s3.68-8.21,8.21-8.21h10.64c4.53,0,8.21,3.68,8.21,8.21,0,.19-.15,.34-.34,.34h-.58c-.19,0-.34-.15-.34-.34,0-3.83-3.12-6.95-6.95-6.95h-10.64c-3.83,0-6.95,3.12-6.95,6.95s3.12,6.95,6.95,6.95h10.64c4.53,0,8.21,3.68,8.21,8.21s-3.68,8.21-8.21,8.21h-10.64c-4.53,0-8.21-3.68-8.21-8.21,0-.19,.15-.34,.34-.34h.58c.19,0,.34,.15,.34,.34,0,3.83,3.12,6.95,6.95,6.95h10.64c3.83,0,6.95-3.12,6.95-6.95" style="fill:#2e2d2c;"></path><path d="M296.44,48.2c0-3.83-3.12-6.95-6.95-6.95h-10.64c-4.53,0-8.21-3.68-8.21-8.21s3.68-8.21,8.21-8.21h10.64c4.53,0,8.21,3.68,8.21,8.21,0,.19-.15,.34-.34,.34h-.58c-.19,0-.34-.15-.34-.34,0-3.83-3.12-6.95-6.95-6.95h-10.64c-3.83,0-6.95,3.12-6.95,6.95s3.12,6.95,6.95,6.95h10.64c4.53,0,8.21,3.68,8.21,8.21s-3.68,8.21-8.21,8.21h-10.64c-4.53,0-8.21-3.68-8.21-8.21,0-.19,.15-.34,.34-.34h.58c.19,0,.34,.15,.34,.34,0,3.83,3.12,6.95,6.95,6.95h10.64c3.83,0,6.95-3.12,6.95-6.95Z" style="fill:none; stroke:#2e2d2c; stroke-miterlimit:10; stroke-width:1.35px;"></path><path d="M197.26,56.07V25.17c0-.19,.15-.34,.34-.34h.58c.19,0,.34,.15,.34,.34v30.9c0,.19-.15,.34-.34,.34h-.58c-.19,0-.34-.15-.34-.34" style="fill:#2e2d2c;"></path><path d="M197.6,24.83h.58c.19,0,.34,.15,.34,.34v30.9c0,.19-.15,.34-.34,.34h-.58c-.19,0-.34-.15-.34-.34V25.17c0-.19,.15-.34,.34-.34Z" style="fill:none; stroke:#2e2d2c; stroke-miterlimit:10; stroke-width:1.35px;"></path></g></svg>